<svg id="f65dcaaa-a43f-44d9-8793-dc16a3dce27d" data-name="Layer 1" xmlns="http://www.w3.org/2000/svg" width="888" height="476.81476" viewBox="0 0 888 476.81476">
 <title>circuit_board</title>

  <path id="svg_1" fill="#e6e6e6" d="m552.64179,164.075589a75.14,75.14 0 0 0 -147.426,-15.84214c-0.91031,-0.03267 -1.81983,-0.06924 -2.73808,-0.06924a75.15811,75.15811 0 0 0 -72.09559,53.969a53.10367,53.10367 0 0 0 -63.01162,15.6736l234.38757,0c28.796,0 52.11117,-23.851 50.9369,-52.62306q-0.02259,-0.55321 -0.05318,-1.10816z"/>
  <path id="svg_2" fill="#e6e6e6" d="m69.09567,70.892379a75.14,75.14 0 0 1 147.426,-15.84215c0.91031,-0.03266 1.81983,-0.06924 2.73809,-0.06924a75.15814,75.15814 0 0 1 72.09559,53.969a53.10362,53.10362 0 0 1 63.01165,15.67366l-234.3876,0c-28.796,0 -52.11117,-23.851 -50.9369,-52.62305q0.02257,-0.55322 0.05317,-1.10822z"/>
  <polygon id="svg_3" fill="#2fbcb2" points="336.372 145.025 151.746 145.025 59.433 304.916 151.746 464.807 336.372 464.807 428.685 304.916 336.372 145.025"/>
  <path id="svg_4" fill="#fff" d="m167.20031,438.039129l153.71738,0l76.85916,-133.12314l-76.85916,-133.12361l-153.71738,0l-76.85916,133.12361l76.85916,133.12314z"/>
  <polygon id="svg_6" fill="#a0616a" points="667.6810302734375,58.277000427246094 675.7039794921875,81.00800323486328 662.3319702148438,107.7509994506836 639.6010131835938,68.9739990234375 667.6810302734375,58.277000427246094 "/>
  <path id="svg_7" fill="#2f2e41" d="m735.20691,333.060729c-4.39919,6.16423 -38.32264,41.83934 -61.01408,65.53365c-6.298,6.56536 -11.72682,12.22147 -15.41728,16.05908c-3.236,3.35625 -5.13469,5.3219 -5.13469,5.3219l-10.25586,-21.44791l-4.45273,-9.3065l0.06684,-0.08022l2.79468,-3.57025l26.64935,-34.09728l27.98651,-35.7954l-22.73152,-45.463l28.08011,-4.01144l18.66662,1.09647l4.0649,0.24067s17.38289,56.16019 10.69715,65.52023z"/>
  <path id="svg_8" fill="#2f2e41" d="m656.31516,442.706879c-1.73828,1.73828 -4.76024,-0.48135 -8.03627,-4.27889c-6.77936,-7.86244 -14.69525,-22.46407 -14.69525,-22.46407l-9.36,-20.05723c1.00286,-5.99047 10.17568,-6.75258 14.77547,-6.766c1.56444,0 2.60746,0.08022 2.60746,0.08022l0.77557,1.14993l16.39345,24.28258s2.88816,22.70487 -2.46043,28.05346z"/>
  <path id="svg_9" opacity="0.2" d="m658.77555,414.653459s2.8882,22.70483 -2.46039,28.05342c-1.73828,1.73828 -4.76024,-0.48135 -8.03627,-4.27889l-4.89389,-39.90054l-1.00286,-8.15657l-0.58835,-4.8004l26.64935,-34.09728l5.74973,47.12118c-6.29804,6.56536 -11.72687,12.22147 -15.41732,16.05908z"/>
  <polygon id="svg_10" opacity="0.2" points="677.2949829101562,277.40899658203125 673.697998046875,270.2149963378906 701.7780151367188,266.2030029296875 720.4450073242188,267.29998779296875 720.4979858398438,267.5400085449219 677.2949829101562,277.40899658203125 "/>
  <polygon id="svg_11" fill="#2f2e41" points="641.6069946289062,208.70599365234375 632.2459716796875,208.70599365234375 634.9210205078125,296.9580078125 653.6409912109375,449.39300537109375 684.39501953125,449.39300537109375 671.0239868164062,339.7460021972656 677.7100219726562,278.2380065917969 724.510009765625,267.5400085449219 711.1380004882812,206.03199768066406 641.6069946289062,208.70599365234375 "/>
  <path id="svg_12" fill="#2f2e41" d="m656.31516,445.381179s-2.6743,18.72008 -1.33715,20.05722s2.6743,2.6743 2.6743,5.3486s16.04578,9.36 24.06867,4.01144s2.67429,-13.37148 2.67429,-13.37148l-8.02289,-16.04578l-20.05722,0z"/>
  <circle id="svg_13" fill="#a0616a" r="22.73152" cy="52.2596" cx="650.96657"/>
  <polygon id="svg_14" fill="#e6e6e6" points="664.3380126953125,88.36299896240234 646.8489990234375,81.33799743652344 636.2579956054688,212.7169952392578 709.801025390625,218.0659942626953 684.39501953125,83.01399993896484 673.030029296875,72.34300231933594 664.3380126953125,88.36299896240234 "/>
  <path id="svg_15" fill="#2f2e41" d="m644.52235,77.369529l-13.613,10.99307l-25.40582,13.37148l9.36,84.24034l1.33715,48.13734s-17.38292,42.78874 -4.01144,53.48593s28.08011,6.68574 25.40581,-16.04578s-8.02288,-38.7773 17.38293,-62.846s3.15738,-136.98086 -10.45563,-131.33638z"/>
  <path id="svg_16" fill="#2f2e41" d="m671.64776,69.516129l16.759,10.82358l22.73152,12.03433l17.38289,192.54934l-38.7773,12.03433s-21.48359,-222.21938 -18.09611,-227.44158z"/>
  <path id="svg_17" fill="#a0616a" d="m715.14968,228.763159s-20.05722,30.75441 -5.34859,30.75441s18.72008,-25.40581 18.72008,-25.40581l-13.37149,-5.3486z"/>
  <path id="svg_18" fill="#a0616a" d="m632.24649,228.763159s20.05723,30.75441 5.34859,30.75441s-18.72008,-25.40581 -18.72008,-25.40581l13.37149,-5.3486z"/>
  <path id="svg_19" fill="#2f2e41" d="m652.30372,18.830889l-6.68575,-4.01144l1.33715,2.67429l-5.34859,-1.33715l1.33715,1.33715l-6.68574,-1.33715l2.67429,2.6743s-10.69718,0 -12.03433,10.69719l-6.68574,1.33714l2.67429,4.01145l0,4.01144l2.6743,2.6743l0,4.01144l2.6743,6.68575l2.67429,-9.36s12.03434,2.67429 17.38293,-8.02289c0,0 1.33715,4.01144 8.02289,2.6743l10.69719,18.72007s1.33714,-8.29895 6.01716,-9.49807s2.00573,-11.8963 2.00573,-11.8963s-4.01145,-4.01145 -4.01145,-6.68574s-4.01144,-5.3486 -6.68574,-5.3486s-9.36,-5.34859 -9.36,-5.34859l-2.67433,1.33711z"/>
  <path id="svg_20" fill="#2f2e41" d="m616.20071,103.071229l-6.22436,-3.69127l-4.47282,2.35412s-5.3486,2.6743 -6.68574,12.03434s-14.70864,66.85741 -14.70864,66.85741s-1.33714,9.36 5.3486,25.40581s32.09156,44.1259 32.09156,44.1259l24.06869,-20.05723l-36.103,-44.12593l9.36,-36.103l-2.67429,-46.80015z"/>
  <polygon id="svg_21" fill="#2f2e41" points="700.4409790039062,92.3740005493164 711.1380004882812,92.3740005493164 728.52099609375,157.8939971923828 733.8699951171875,239.4600067138672 708.4639892578125,230.10000610351562 708.4639892578125,171.26600646972656 700.4409790039062,92.3740005493164 "/>
  <rect id="svg_22" fill="#3f3d56" height="82.55518" width="2" y="171.59439" x="184.70117"/>
  <circle id="svg_23" fill="#2fbcb2" r="5.69344" cy="258.894" cx="185.70121"/>
  <rect id="svg_24" fill="#3f3d56" height="82.55518" width="2" y="171.59439" x="227.40186"/>
  <circle id="svg_25" fill="#3f3d56" r="5.69344" cy="258.894" cx="228.40203"/>
  <rect id="svg_26" fill="#3f3d56" height="82.55518" width="2" y="171.59439" x="302.36572"/>
  <circle id="svg_27" fill="#3f3d56" r="5.69344" cy="258.894" cx="303.36569"/>
  <circle id="svg_28" fill="#3f3d56" r="5.69344" cy="340.50001" cx="272.05176"/>
  <circle id="svg_29" fill="#3f3d56" r="5.69344" cy="288.31012" cx="156.2851"/>
  <polygon id="svg_30" fill="#3f3d56" points="273.052 335.755 271.052 335.755 271.052 236.276 228.402 236.276 228.402 234.276 273.052 234.276 273.052 335.755"/>
  <circle id="svg_31" fill="#2fbcb2" r="5.69344" cy="376.55848" cx="198.98591"/>
  <polygon id="svg_32" fill="#3f3d56" points="199.986 371.814 197.986 371.814 197.986 272.334 155.336 272.334 155.336 270.334 199.986 270.334 199.986 371.814"/>
  <circle id="svg_33" fill="#2fbcb2" r="5.69344" cy="331.95985" cx="330.884"/>
  <polygon id="svg_34" fill="#3f3d56" points="331.884 327.215 329.884 327.215 329.884 227.736 302.417 227.736 302.417 225.736 331.884 225.736 331.884 327.215"/>
  <polygon id="svg_35" fill="#3f3d56" points="157.285 282.616 155.285 282.616 155.285 233.155 185.701 233.155 185.701 235.155 157.285 235.155 157.285 282.616"/>
  <circle id="svg_36" fill="#3f3d56" r="5.69344" cy="398.85779" cx="228.87649"/>
  <polygon id="svg_37" fill="#3f3d56" points="229.876 393.164 227.876 393.164 227.876 345.703 199.46 345.703 199.46 343.703 229.876 343.703 229.876 393.164"/>
  <circle id="svg_38" fill="#3f3d56" r="5.69344" cy="356.63143" cx="301.46788"/>
  <polygon id="svg_39" fill="#3f3d56" points="302.468 350.938 300.468 350.938 300.468 301.477 330.884 301.477 330.884 303.477 302.468 303.477 302.468 350.938"/>
 
</svg>